# xmcd CD database file
#
# Track frame offsets:
#	150
#	18335
#	38510
#	56672
#
# Disc length: 1028 seconds
#
# Revision: 0
# Processed by: cddbd v1.5PL3 Copyright (c) Steve Scherf et al.
# Submitted via: CDex 1.51
#
DISCID=26040204
DTITLE=野上ゆかな - モルダイバー
DYEAR=1900
DGENRE=Anime
TTITLE0=GO!GO!モルダイバー
TTITLE1=恋人たちのモニュメント
TTITLE2=GO!GO!モルダイバー(Off Vocal Version)
TTITLE3=恋人たちのモニュメント(Off Vocal Version)
EXTD=
EXTT0=
EXTT1=
EXTT2=
EXTT3=
PLAYORDER=
